<?xml version="1.0" encoding="utf-8"?>
<svg viewBox="41.496 154.455 512.358 496.608" width="102" height="98" xmlns="http://www.w3.org/2000/svg">
  <g id="Layer 1 copy">
    <path stroke="#000000" stroke-opacity="0.979387" stroke-width="4.5" d="M252.731+328.454L213.22+240.273" fill="#000000" stroke-linecap="round" fill-opacity="0" opacity="1" stroke-linejoin="round"/>
    <path stroke="#000000" stroke-opacity="0.979387" stroke-width="4.5" d="M149.022+222.339L213.22+240.273L226.059+218.713L149.022+222.339Z" fill="#000000" stroke-linecap="round" fill-opacity="0" opacity="1" stroke-linejoin="round"/>
    <path stroke="#000000" stroke-opacity="0.979387" stroke-width="4.5" d="M252.731+328.454L181.292+255.358L202.284+300.869L252.731+328.454" fill="#000000" stroke-linecap="round" fill-opacity="0" opacity="1" stroke-linejoin="round"/>
    <path stroke="#000000" stroke-opacity="0.979387" stroke-width="4.5" d="M181.292+255.358L149.022+222.339L226.059+218.713L285.222+288.542L252.731+328.454L374.952+434.225L285.222+288.542L379.061+320.661L449.24+421.59L467.771+651.063L194.507+650.857L249.698+570.019L253.505+507.325L208.726+534.846L176.734+521.039L159.289+538.008L213.568+583.62L231.718+564.164L221.75+543.139L208.726+534.846L221.75+543.139L213.568+583.62L201.086+573.132L180.161+592.066L78.8745+590.402L45.6792+520.23L65.0047+475.144L139.715+388.428L140.211+373.851L153.415+355.848L172.196+368.512L200.683+342.64L199.329+317.26L202.284+300.869L252.731+328.454L200.683+342.64L252.731+328.454L175.483+380.516L139.715+388.428L144.351+436.66L160.432+445.76L175.692+441.125L196.415+401.077L175.483+380.516L172.196+368.512" fill="#000000" stroke-linecap="round" fill-opacity="0" opacity="1" stroke-linejoin="round"/>
    <path stroke="#000000" stroke-opacity="0.979387" stroke-width="4.5" d="M140.211+373.851L119.128+375.306L123.29+407.493" fill="#000000" stroke-linecap="round" fill-opacity="0" opacity="1" stroke-linejoin="round"/>
    <path stroke="#000000" stroke-opacity="0.979387" stroke-width="4.5" d="M45.6792+520.23L98.4433+515.892L144.351+436.66" fill="#000000" stroke-linecap="round" fill-opacity="0" opacity="1" stroke-linejoin="round"/>
    <path stroke="#000000" stroke-opacity="0.979387" stroke-width="4.5" d="M98.4433+515.892L203.418+449.691L184.451+424.199" fill="#000000" stroke-linecap="round" fill-opacity="0" opacity="1" stroke-linejoin="round"/>
    <path stroke="#000000" stroke-opacity="0.979387" stroke-width="4.5" d="M252.731+328.454L339.489+504.275L374.952+434.225L433.901+651.037L449.24+421.59" fill="#000000" stroke-linecap="round" fill-opacity="0" opacity="1" stroke-linejoin="round"/>
    <path stroke="#000000" stroke-opacity="0.979387" stroke-width="4.5" d="M433.901+651.037L379.061+320.661" fill="#000000" stroke-linecap="round" fill-opacity="0" opacity="1" stroke-linejoin="round"/>
    <path stroke="#000000" stroke-opacity="0.979387" stroke-width="4.5" d="M339.489+504.275L312.343+650.946L249.698+570.019" fill="#000000" stroke-linecap="round" fill-opacity="0" opacity="1" stroke-linejoin="round"/>
    <path stroke="#000000" stroke-opacity="0.979387" stroke-width="4.5" d="M196.415+401.077L252.731+328.454L203.418+449.691L253.505+507.325L339.489+504.275" fill="#000000" stroke-linecap="round" fill-opacity="0" opacity="1" stroke-linejoin="round"/>
    <path stroke="#000000" stroke-opacity="0.979387" stroke-width="4.5" d="M45.6792+520.23L140.48+591.414L98.4433+515.892" fill="#000000" stroke-linecap="round" fill-opacity="0" opacity="1" stroke-linejoin="round"/>
    <path stroke="#000000" stroke-opacity="0.979387" stroke-width="4.5" d="M78.8745+590.402L116.584+573.471" fill="#000000" stroke-linecap="round" fill-opacity="0" opacity="1" stroke-linejoin="round"/>
    <path stroke="#000000" stroke-opacity="0.979387" stroke-width="4.5" d="M140.48+591.414L182.164+557.231" fill="#000000" stroke-linecap="round" fill-opacity="0" opacity="1" stroke-linejoin="round"/>
    <path stroke="#000000" stroke-opacity="0.979387" stroke-width="4.5" d="M184.443+524.366L165.978+501.39L143.829+510.234L140.48+591.414" fill="#000000" stroke-linecap="round" fill-opacity="0" opacity="1" stroke-linejoin="round"/>
    <path stroke="#000000" stroke-opacity="0.979387" stroke-width="4.5" d="M159.289+538.008L141.37+569.847L173.705+550.122" fill="#000000" stroke-linecap="round" fill-opacity="0" opacity="1" stroke-linejoin="round"/>
    <path stroke="#000000" stroke-opacity="0.979387" stroke-width="4.5" d="M138.155+320.15L118.23+300.893L122.512+254.033L154.85+270.956L138.155+320.15L153.415+355.848L152.563+288.74L200.683+342.64L199.329+317.26L152.563+288.74" fill="#000000" stroke-linecap="round" fill-opacity="0" opacity="1" stroke-linejoin="round"/>
    <path stroke="#000000" stroke-opacity="0.979387" stroke-width="4.5" d="M118.23+300.893L107.932+265.019L116.408+232.231L122.512+254.033" fill="#000000" stroke-linecap="round" fill-opacity="0" opacity="1" stroke-linejoin="round"/>
    <path stroke="#000000" stroke-opacity="0.979387" stroke-width="4.5" d="M107.932+265.019L87.4496+253.948L90.0602+218.34L116.408+232.231L87.4496+253.948" fill="#000000" stroke-linecap="round" fill-opacity="0" opacity="1" stroke-linejoin="round"/>
    <path stroke="#000000" stroke-opacity="0.979387" stroke-width="4.5" d="M87.4496+253.948L79.9296+227.773L67.0638+222.85L66.4853+175.217L41.4957+154.455L49.7911+189.075L66.8561+205.748" fill="#000000" stroke-linecap="round" fill-opacity="0" opacity="1" stroke-linejoin="round"/>
    <path stroke="#000000" stroke-opacity="0.979387" stroke-width="4.5" d="M49.7911+189.075L66.4853+175.217" fill="#000000" stroke-linecap="round" fill-opacity="0" opacity="1" stroke-linejoin="round"/>
    <path stroke="#000000" stroke-opacity="0.979387" stroke-width="4.5" d="M66.6648+189.993L87.7182+202.85L90.0602+218.34L79.9296+227.773" fill="#000000" stroke-linecap="round" fill-opacity="0" opacity="1" stroke-linejoin="round"/>
    <path stroke="#000000" stroke-opacity="0.979387" stroke-width="4.5" d="M87.7182+202.85L67.0638+222.85" fill="#000000" stroke-linecap="round" fill-opacity="0" opacity="1" stroke-linejoin="round"/>
    <path stroke="#000000" stroke-opacity="0.979387" stroke-width="4.5" d="M154.85+270.956L118.23+300.893" fill="#000000" stroke-linecap="round" fill-opacity="0" opacity="1" stroke-linejoin="round"/>
    <path stroke="#000000" stroke-opacity="0.979387" stroke-width="4.5" d="M113.186+283.323L87.7913+281.49L153.415+355.848" fill="#000000" stroke-linecap="round" fill-opacity="0" opacity="1" stroke-linejoin="round"/>
    <path stroke="#000000" stroke-opacity="0.979387" stroke-width="4.5" d="M250.266+247.284L344.029+204.609L265.575+265.352L285.222+288.542L344.029+204.609L301.696+294.181L372.644+250.005L350.707+175.112L358.057+259.088L345.166+267.114L350.707+175.112L344.029+204.609" fill="#000000" stroke-linecap="round" fill-opacity="0" opacity="1" stroke-linejoin="round"/>
    <path stroke="#000000" stroke-opacity="0.979387" stroke-width="4.5" d="M487.012+368.236L533.172+354.548L505.363+396.266L523.663+424.218L462.423+330.676L473.572+388.345L443.115+366.534L462.423+330.676L533.172+354.548L523.663+424.218L449.24+421.59L423.983+385.267L523.663+424.218L379.061+320.661L462.423+330.676L301.696+294.181L338.311+271.382L462.423+330.676L372.644+250.005L417.864+259.388L462.423+330.676L444.691+266.626L417.864+259.388" fill="#000000" stroke-linecap="round" fill-opacity="0" opacity="1" stroke-linejoin="round"/>
    <path stroke="#000000" stroke-opacity="0.979387" stroke-width="4.5" d="M449.24+421.59L516.161+523.585L477.686+422.594L503.554+423.508L516.161+523.585L523.663+424.218" fill="#000000" stroke-linecap="round" fill-opacity="0" opacity="1" stroke-linejoin="round"/>
    <path stroke="#000000" stroke-opacity="0.979387" stroke-width="4.5" d="M467.771+651.063L545.666+619.796L465.88+627.644L463.017+592.198L545.666+619.796L460.786+564.573L518.663+579.181L545.666+619.796L518.663+579.181L553.854+538.169L516.161+523.585L518.663+579.181L517.531+554.026L553.854+538.169" fill="#000000" stroke-linecap="round" fill-opacity="0" opacity="1" stroke-linejoin="round"/>
    <path stroke="#000000" stroke-opacity="0.979387" stroke-width="4.5" d="M449.24+421.59L518.663+579.181L454.814+490.623L458.708+538.841L518.663+579.181" fill="#000000" stroke-linecap="round" fill-opacity="0" opacity="1" stroke-linejoin="round"/>
    <path stroke="#000000" stroke-opacity="0.979387" stroke-width="4.5" d="M139.715+388.428L144.351+436.66L160.432+445.76L175.692+441.125L196.415+401.077L175.483+380.516" fill="#000000" stroke-linecap="round" opacity="1" stroke-linejoin="round"/>
    <path stroke="#000000" stroke-opacity="0.979387" stroke-width="4.5" d="M119.128+375.306L123.29+407.493L139.715+388.428L140.211+373.851" fill="#000000" stroke-linecap="round" opacity="1" stroke-linejoin="round"/>
    <path stroke="#000000" stroke-opacity="0.979387" stroke-width="4.5" d="M159.289+538.008L179.254+517.91L221.75+543.139L213.568+583.62" fill="#000000" stroke-linecap="round" opacity="1" stroke-linejoin="round"/>
    <path stroke="#000000" stroke-opacity="0.979387" stroke-width="4.5" d="M41.4957+154.455L49.7911+189.075L66.4853+175.217L41.4957+154.455Z" fill="#be26ff" stroke-linecap="butt" opacity="1" stroke-linejoin="round"/>
    <path stroke="#000000" stroke-opacity="0.979387" stroke-width="4.5" d="M122.512+254.033L118.23+300.893L154.85+270.956L122.512+254.033Z" fill="#be26ff" stroke-linecap="butt" opacity="1" stroke-linejoin="round"/>
    <path stroke="#000000" stroke-opacity="0.979387" stroke-width="4.5" d="M152.563+288.74L200.683+342.64L199.329+317.26L152.563+288.74Z" fill="#be26ff" stroke-linecap="butt" opacity="1" stroke-linejoin="round"/>
    <path stroke="#000000" stroke-opacity="0.979387" stroke-width="4.5" d="M301.696+294.181L349.612+193.285L345.166+267.114L301.696+294.181Z" fill="#be26ff" stroke-linecap="butt" opacity="1" stroke-linejoin="round"/>
    <path stroke="#000000" stroke-opacity="0.979387" stroke-width="4.5" d="M417.864+259.388L462.423+330.676L444.691+266.626L417.864+259.388Z" fill="#be26ff" stroke-linecap="butt" opacity="1" stroke-linejoin="round"/>
    <path stroke="#000000" stroke-opacity="0.979387" stroke-width="4.5" d="M533.172+354.548L505.363+396.266L523.663+424.218L533.172+354.548Z" fill="#be26ff" stroke-linecap="butt" opacity="1" stroke-linejoin="round"/>
    <path stroke="#000000" stroke-opacity="0.979387" stroke-width="4.5" d="M423.983+385.267L449.24+421.59L523.663+424.218L423.983+385.267Z" fill="#be26ff" stroke-linecap="butt" opacity="1" stroke-linejoin="round"/>
    <path stroke="#000000" stroke-opacity="0.979387" stroke-width="4.5" d="M449.24+421.59L516.161+523.585L518.663+579.181L449.24+421.59Z" fill="#be26ff" stroke-linecap="butt" opacity="1" stroke-linejoin="round"/>
    <path stroke="#000000" stroke-opacity="0.979387" stroke-width="4.5" d="M463.017+592.198L545.666+619.796L465.88+627.644L463.017+592.198Z" fill="#be26ff" stroke-linecap="butt" opacity="1" stroke-linejoin="round"/>
    <path stroke="#000000" stroke-opacity="0.979387" stroke-width="4.5" d="M153.415+355.848L172.196+368.512L200.683+342.64L152.563+288.74L153.415+355.848Z" fill="#f14900" stroke-linecap="round" opacity="1" stroke-linejoin="round"/>
    <path stroke="#000000" stroke-opacity="0.979387" stroke-width="4.5" d="M118.23+300.893L122.512+254.033L116.408+232.231L107.932+265.019L118.23+300.893Z" fill="#f14900" stroke-linecap="round" opacity="1" stroke-linejoin="round"/>
    <path stroke="#000000" stroke-opacity="0.979387" stroke-width="4.5" d="M49.7911+189.075L66.4853+175.217L66.8561+205.748L49.7911+189.075Z" fill="#f14900" stroke-linecap="round" opacity="1" stroke-linejoin="round"/>
    <path stroke="#000000" stroke-opacity="0.979387" stroke-width="4.5" d="M345.166+267.114L358.057+259.088L350.707+175.112L345.166+267.114Z" fill="#f14900" stroke-linecap="round" opacity="1" stroke-linejoin="round"/>
    <path stroke="#000000" stroke-opacity="0.979387" stroke-width="4.5" d="M301.696+294.181L379.061+320.661L462.423+330.676L301.696+294.181Z" fill="#f14900" stroke-linecap="round" opacity="1" stroke-linejoin="round"/>
    <path stroke="#000000" stroke-opacity="0.979387" stroke-width="4.5" d="M473.572+388.345L462.423+330.676L523.663+424.218L473.572+388.345Z" fill="#f14900" stroke-linecap="round" opacity="1" stroke-linejoin="round"/>
    <path stroke="#000000" stroke-opacity="0.979387" stroke-width="4.5" d="M458.708+538.841L460.786+564.573L518.663+579.181L458.708+538.841Z" fill="#f14900" stroke-linecap="round" opacity="1" stroke-linejoin="round"/>
    <path stroke="#000000" stroke-opacity="0.979387" stroke-width="4.5" d="M516.161+523.585L517.472+552.717" fill="#f14900" stroke-linecap="round" opacity="1" stroke-linejoin="round"/>
    <path stroke="#000000" stroke-opacity="0.979387" stroke-width="4.5" d="M458.708+538.841L454.814+490.623L518.663+579.181L458.708+538.841Z" fill="#43bbff" stroke-linecap="round" opacity="1" stroke-linejoin="round"/>
    <path stroke="#000000" stroke-opacity="0.979387" stroke-width="4.5" d="M517.472+552.717L553.854+538.169L518.663+579.181L517.472+552.717Z" fill="#43bbff" stroke-linecap="round" opacity="1" stroke-linejoin="round"/>
    <path stroke="#000000" stroke-opacity="0.979387" stroke-width="4.5" d="M478.185+422.612L504.12+423.528L516.161+523.585L478.185+422.612Z" fill="#43bbff" stroke-linecap="round" opacity="1" stroke-linejoin="round"/>
    <path stroke="#000000" stroke-opacity="0.979387" stroke-width="4.5" d="M443.115+366.534L462.423+330.676L473.572+388.345L443.115+366.534Z" fill="#43bbff" stroke-linecap="round" opacity="1" stroke-linejoin="round"/>
    <path stroke="#000000" stroke-opacity="0.979387" stroke-width="4.5" d="M372.644+250.005L417.864+259.388L462.423+330.676L372.644+250.005Z" fill="#43bbff" stroke-linecap="round" opacity="1" stroke-linejoin="round"/>
    <path stroke="#000000" stroke-opacity="0.979387" stroke-width="4.5" d="M285.222+288.542L301.696+294.181L342.355+208.566L285.222+288.542Z" fill="#43bbff" stroke-linecap="round" opacity="1" stroke-linejoin="round"/>
    <path stroke="#000000" stroke-opacity="0.979387" stroke-width="4.5" d="M153.415+355.848L152.563+288.74L138.155+320.15L153.415+355.848Z" fill="#43bbff" stroke-linecap="round" opacity="1" stroke-linejoin="round"/>
    <path stroke="#000000" stroke-opacity="0.979387" stroke-width="4.5" d="M87.4496+253.948L116.408+232.231L90.0602+218.34L87.4496+253.948Z" fill="#43bbff" stroke-linecap="round" opacity="1" stroke-linejoin="round"/>
    <path stroke="#000000" stroke-opacity="0.979387" stroke-width="4.5" d="M67.0638+222.85L87.7182+202.85L90.0602+218.34L79.9296+227.773L67.0638+222.85Z" fill="#43bbff" stroke-linecap="round" opacity="1" stroke-linejoin="round"/>
    <path stroke="#000000" stroke-opacity="0.979387" stroke-width="4.5" d="M95.5451+247.877L87.4496+253.948L107.932+265.019L116.408+232.231L87.4496+253.948" fill="#16ffa1" stroke-linecap="round" opacity="1" stroke-linejoin="round"/>
    <path stroke="#000000" stroke-opacity="0.979387" stroke-width="4.5" d="M67.0638+222.85L87.7182+202.85L66.7019+193.046L67.0638+222.85Z" fill="#16ffa1" stroke-linecap="round" opacity="1" stroke-linejoin="round"/>
    <path stroke="#000000" stroke-opacity="0.979387" stroke-width="4.5" d="M118.23+300.893L154.85+270.956L138.155+320.15L118.23+300.893Z" fill="#16ffa1" stroke-linecap="round" opacity="1" stroke-linejoin="round"/>
    <path stroke="#000000" stroke-opacity="0.979387" stroke-width="4.5" d="M250.266+247.284L265.575+265.352L349.124+201.394L250.266+247.284Z" fill="#16ffa1" stroke-linecap="round" opacity="1" stroke-linejoin="round"/>
    <path stroke="#000000" stroke-opacity="0.979387" stroke-width="4.5" d="M358.057+259.088L372.644+250.005L350.707+175.112L358.057+259.088Z" fill="#16ffa1" stroke-linecap="round" opacity="1" stroke-linejoin="round"/>
    <path stroke="#000000" stroke-opacity="0.979387" stroke-width="4.5" d="M345.166+267.114" fill="#16ffa1" stroke-linecap="round" opacity="1" stroke-linejoin="round"/>
    <path stroke="#000000" stroke-opacity="0.979387" stroke-width="4.5" d="M372.644+250.005L462.423+330.676L339.588+270.587L372.644+250.005Z" fill="#16ffa1" stroke-linecap="round" opacity="1" stroke-linejoin="round"/>
    <path stroke="#000000" stroke-opacity="0.979387" stroke-width="4.5" d="M379.061+320.661L423.983+385.267L523.663+424.218L379.061+320.661Z" fill="#16ffa1" stroke-linecap="round" opacity="1" stroke-linejoin="round"/>
    <path stroke="#000000" stroke-opacity="0.979387" stroke-width="4.5" d="M462.423+330.676L487.233+368.573L533.172+354.548L462.423+330.676Z" fill="#16ffa1" stroke-linecap="round" opacity="1" stroke-linejoin="round"/>
    <path stroke="#000000" stroke-opacity="0.979387" stroke-width="4.5" d="M504.12+423.528L516.161+523.585L523.663+424.218L504.12+423.528Z" fill="#16ffa1" stroke-linecap="round" opacity="1" stroke-linejoin="round"/>
    <path stroke="#000000" stroke-opacity="0.979387" stroke-width="4.5" d="M449.24+421.59L454.814+490.623L518.663+579.181L449.24+421.59Z" fill="#16ffa1" stroke-linecap="round" opacity="1" stroke-linejoin="round"/>
    <path stroke="#000000" stroke-opacity="0.979387" stroke-width="4.5" d="M460.786+564.573L545.666+619.796L518.663+579.181L460.786+564.573Z" fill="#16ffa1" stroke-linecap="round" opacity="1" stroke-linejoin="round"/>
    <path stroke="#000000" stroke-opacity="0.979387" stroke-width="4.5" d="M467.771+651.063L465.88+627.644L545.666+619.796L467.771+651.063Z" fill="#16ffa1" stroke-linecap="round" opacity="1" stroke-linejoin="round"/>
    <path stroke="#000000" stroke-opacity="0.979387" stroke-width="4.5" d="M463.017+592.198L460.786+564.573L545.666+619.796L463.017+592.198Z" fill="#ff005f" stroke-linecap="round" opacity="1" stroke-linejoin="round"/>
    <path stroke="#000000" stroke-opacity="0.979387" stroke-width="4.5" d="M449.24+421.59L478.185+422.612L516.161+523.585L449.24+421.59Z" fill="#ff005f" stroke-linecap="round" opacity="1" stroke-linejoin="round"/>
    <path stroke="#000000" stroke-opacity="0.979387" stroke-width="4.5" d="M487.233+368.573L533.172+354.548L506.55+398.079L487.233+368.573Z" fill="#ff005f" stroke-linecap="round" opacity="1" stroke-linejoin="round"/>
    <path stroke="#000000" stroke-opacity="0.979387" stroke-width="4.5" d="M442.822+366.323L462.423+330.676L379.061+320.661L442.822+366.323Z" fill="#ff005f" stroke-linecap="round" opacity="1" stroke-linejoin="round"/>
    <path stroke="#000000" stroke-opacity="0.979387" stroke-width="4.5" d="M301.696+294.181L339.588+270.587L462.423+330.676L301.696+294.181Z" fill="#ff005f" stroke-linecap="round" opacity="1" stroke-linejoin="round"/>
    <path stroke="#000000" stroke-opacity="0.979387" stroke-width="4.5" d="M265.575+265.352L285.222+288.542L349.124+201.394L265.575+265.352Z" fill="#ff005f" stroke-linecap="round" opacity="1" stroke-linejoin="round"/>
    <path stroke="#000000" stroke-opacity="0.979387" stroke-width="4.5" d="M79.9296+227.773L90.0602+218.34L87.4496+253.948L79.9296+227.773Z" fill="#ff005f" stroke-linecap="round" opacity="1" stroke-linejoin="round"/>
    <path stroke="#000000" stroke-opacity="0.979387" stroke-width="4.5" d="M516.161+523.585L517.472+552.717L553.854+538.169L516.161+523.585Z" fill="#f14900" stroke-linecap="round" opacity="1" stroke-linejoin="round"/>
    <path stroke="#000000" stroke-opacity="0.979387" stroke-width="4.5" d="M221.75+543.139L213.568+583.62L231.718+564.164L221.75+543.139Z" fill="#be26ff" stroke-linecap="butt" opacity="1" stroke-linejoin="round"/>
    <path stroke="#000000" stroke-opacity="0.979387" stroke-width="4.5" d="M213.568+583.62L221.75+543.139L231.718+564.164L213.568+583.62Z" fill="#16ffa1" stroke-linecap="butt" opacity="1" stroke-linejoin="round"/>
    <path stroke="#000000" stroke-opacity="0.979387" stroke-width="4.5" d="M231.718+564.164L217.334+579.583" fill="#f14900" stroke-linecap="butt" fill-opacity="0.00324675" opacity="1" stroke-linejoin="round"/>
    <path stroke="#000000" stroke-opacity="0.979387" stroke-width="4.5" d="M228.367+557.097L231.718+564.164" fill="#f14900" stroke-linecap="butt" fill-opacity="0.00324675" opacity="1" stroke-linejoin="round"/>
  </g>
</svg>