<?xml version="1.0" encoding="utf-8"?>
<svg viewBox="0.672 2.177 491.429 476.322" width="102" height="98" xmlns="http://www.w3.org/2000/svg">
  <g id="Layer 1 copy" transform="matrix(0.959151, 0, 0, 0.959151, -40.617271, -145.968353)" style="">
    <path stroke="#ffffff" stroke-width="4.5" d="M254.283+328.454L214.772+240.273" fill="#000000" stroke-linecap="round" fill-opacity="0" opacity="1" stroke-linejoin="round"/>
    <path stroke="#ffffff" stroke-width="4.5" d="M150.574+222.339L214.772+240.273L227.611+218.713L150.574+222.339Z" fill="#000000" stroke-linecap="round" fill-opacity="0" opacity="1" stroke-linejoin="round"/>
    <path stroke="#ffffff" stroke-width="4.5" d="M141.763+373.851L120.68+375.306L124.842+407.493" fill="#000000" stroke-linecap="round" fill-opacity="0" opacity="1" stroke-linejoin="round"/>
    <path stroke="#ffffff" stroke-width="4.5" d="M47.231+520.23L99.9951+515.892L145.903+436.66" fill="#000000" stroke-linecap="round" fill-opacity="0" opacity="1" stroke-linejoin="round"/>
    <path stroke="#ffffff" stroke-width="4.5" d="M99.9951+515.892L204.97+449.691L186.002+424.199" fill="#000000" stroke-linecap="round" fill-opacity="0" opacity="1" stroke-linejoin="round"/>
    <path stroke="#ffffff" stroke-width="4.5" d="M254.283+328.454L341.04+504.275L354.342+478L376.504+434.225L435.452+651.037L450.792+421.59" fill="#000000" stroke-linecap="round" fill-opacity="0" opacity="1" stroke-linejoin="round"/>
    <path stroke="#ffffff" stroke-width="4.5" d="M435.452+651.037L380.613+320.661" fill="#000000" stroke-linecap="round" fill-opacity="0" opacity="1" stroke-linejoin="round"/>
    <path stroke="#ffffff" stroke-width="4.5" d="M341.04+504.275L313.895+650.946L251.25+570.019" fill="#000000" stroke-linecap="round" fill-opacity="0" opacity="1" stroke-linejoin="round"/>
    <path stroke="#ffffff" stroke-width="4.5" d="M197.967+401.077L254.283+328.454L204.97+449.691L255.057+507.325L341.04+504.275" fill="#000000" stroke-linecap="round" fill-opacity="0" opacity="1" stroke-linejoin="round"/>
    <path stroke="#ffffff" stroke-width="4.5" d="M47.231+520.23L142.032+591.414L99.9951+515.892" fill="#000000" stroke-linecap="round" fill-opacity="0" opacity="1" stroke-linejoin="round"/>
    <path stroke="#ffffff" stroke-width="4.5" d="M142.032+591.414L183.716+557.231" fill="#000000" stroke-linecap="round" fill-opacity="0" opacity="1" stroke-linejoin="round"/>
    <path stroke="#ffffff" stroke-width="4.5" d="M185.995+524.366L167.53+501.39L145.381+510.234L142.032+591.414" fill="#000000" stroke-linecap="round" fill-opacity="0" opacity="1" stroke-linejoin="round"/>
    <path stroke="#ffffff" stroke-width="4.5" d="M160.841+538.008L142.922+569.847L175.257+550.122" fill="#000000" stroke-linecap="round" fill-opacity="0" opacity="1" stroke-linejoin="round"/>
    <path stroke="#ffffff" stroke-width="4.5" d="M139.707+320.15L119.781+300.893L124.064+254.033L156.402+270.956L139.707+320.15L154.966+355.848L154.115+288.74L202.235+342.64L200.881+317.26L154.115+288.74" fill="#000000" stroke-linecap="round" fill-opacity="0" opacity="1" stroke-linejoin="round"/>
    <path stroke="#ffffff" stroke-width="4.5" d="M119.781+300.893L109.484+265.019L117.96+232.231L124.064+254.033" fill="#000000" stroke-linecap="round" fill-opacity="0" opacity="1" stroke-linejoin="round"/>
    <path stroke="#ffffff" stroke-width="4.5" d="M109.484+265.019L89.0014+253.948L91.612+218.34L117.96+232.231L89.0014+253.948" fill="#000000" stroke-linecap="round" fill-opacity="0" opacity="1" stroke-linejoin="round"/>
    <path stroke="#ffffff" stroke-width="4.5" d="M89.0014+253.948L81.4814+227.773L68.6156+222.85L68.0371+175.217L43.0475+154.455L51.3429+189.075L68.4079+205.748" fill="#000000" stroke-linecap="round" fill-opacity="0" opacity="1" stroke-linejoin="round"/>
    <path stroke="#ffffff" stroke-width="4.5" d="M51.3429+189.075L68.0371+175.217" fill="#000000" stroke-linecap="round" fill-opacity="0" opacity="1" stroke-linejoin="round"/>
    <path stroke="#ffffff" stroke-width="4.5" d="M68.2166+189.993L89.27+202.85L91.612+218.34L81.4814+227.773" fill="#000000" stroke-linecap="round" fill-opacity="0" opacity="1" stroke-linejoin="round"/>
    <path stroke="#ffffff" stroke-width="4.5" d="M89.27+202.85L68.6156+222.85L68.6156+222.85" fill="#000000" stroke-linecap="round" fill-opacity="0" opacity="1" stroke-linejoin="round"/>
    <path stroke="#ffffff" stroke-width="4.5" d="M156.402+270.956L119.781+300.893" fill="#000000" stroke-linecap="round" fill-opacity="0" opacity="1" stroke-linejoin="round"/>
    <path stroke="#ffffff" stroke-width="4.5" d="M114.738+283.323L89.3431+281.49L154.966+355.848" fill="#000000" stroke-linecap="round" fill-opacity="0" opacity="1" stroke-linejoin="round"/>
    <path stroke="#ffffff" stroke-width="4.5" d="M251.818+247.284L345.581+204.609L267.126+265.352L286.774+288.542L345.581+204.609L303.247+294.181L374.196+250.005L352.258+175.112L354.206+197.366L359.609+259.088L346.718+267.114C346.718+267.114+349.44+221.908+350.825+198.908C352.211+175.908+352.258+175.112+352.258+175.112L345.581+204.609" fill="#000000" stroke-linecap="round" fill-opacity="0" opacity="1" stroke-linejoin="round"/>
    <path stroke="#ffffff" stroke-width="4.5" d="M488.564+368.236L534.724+354.548L506.915+396.266L525.214+424.218L463.975+330.676L475.124+388.345L444.667+366.534L463.975+330.676L534.724+354.548L525.214+424.218L450.792+421.59L425.535+385.267L525.214+424.218L380.613+320.661L463.975+330.676L303.247+294.181L339.863+271.382L463.975+330.676L374.196+250.005L419.416+259.388L463.975+330.676L446.243+266.626L419.416+259.388" fill="#000000" stroke-linecap="round" fill-opacity="0" opacity="1" stroke-linejoin="round"/>
    <path stroke="#ffffff" stroke-width="4.5" d="M450.792+421.59L517.713+523.585L479.238+422.594L505.106+423.508L517.713+523.585L525.214+424.218" fill="#000000" stroke-linecap="round" fill-opacity="0" opacity="1" stroke-linejoin="round"/>
    <path stroke="#ffffff" stroke-width="4.5" d="M469.323+651.063L547.218+619.796L467.431+627.644L464.569+592.198L547.218+619.796L462.338+564.573L520.215+579.181L547.218+619.796L520.215+579.181L555.406+538.169L517.713+523.585L520.215+579.181L519.083+554.026L555.406+538.169" fill="#000000" stroke-linecap="round" fill-opacity="0" opacity="1" stroke-linejoin="round"/>
    <path stroke="#000000" stroke-opacity="0.979387" stroke-width="4.5" d="M450.792+421.59L520.215+579.181L456.366+490.623L460.26+538.841L520.215+579.181" fill="#000000" stroke-linecap="round" fill-opacity="0" opacity="1" stroke-linejoin="round"/>
    <path stroke="#ffffff" stroke-width="4.5" d="M141.267+388.428L145.903+436.66L161.984+445.76L177.244+441.125L181.083+433.706L197.967+401.077L177.035+380.516" fill="#ffffff" stroke-linecap="round" opacity="1" stroke-linejoin="round"/>
    <path stroke="#ffffff" stroke-width="4.5" d="M120.68+375.306L124.842+407.493L141.267+388.428L141.763+373.851" fill="#ffffff" stroke-linecap="round" opacity="1" stroke-linejoin="round"/>
    <path stroke="#ffffff" stroke-width="4.5" d="M160.841+538.008L180.806+517.91L223.302+543.139L215.119+583.62L160.841+538.008Z" fill="#ffffff" stroke-linecap="round" opacity="1" stroke-linejoin="round"/>
    <path stroke="#ffffff" stroke-width="4.5" d="M43.0475+154.455L51.3429+189.075L68.0371+175.217L43.0475+154.455Z" fill="#be26ff" stroke-linecap="butt" opacity="1" stroke-linejoin="round"/>
    <path stroke="#ffffff" stroke-width="4.5" d="M124.064+254.033L119.781+300.893L156.402+270.956L124.064+254.033Z" fill="#be26ff" stroke-linecap="butt" opacity="1" stroke-linejoin="round"/>
    <path stroke="#ffffff" stroke-width="4.5" d="M154.115+288.74L202.235+342.64L200.881+317.26L154.115+288.74Z" fill="#be26ff" stroke-linecap="butt" opacity="1" stroke-linejoin="round"/>
    <path stroke="#ffffff" stroke-width="4.5" d="M303.247+294.181L351.164+193.285L346.718+267.114L303.247+294.181Z" fill="#be26ff" stroke-linecap="butt" opacity="1" stroke-linejoin="round"/>
    <path stroke="#ffffff" stroke-width="4.5" d="M419.416+259.388L463.975+330.676L446.243+266.626L419.416+259.388Z" fill="#be26ff" stroke-linecap="butt" opacity="1" stroke-linejoin="round"/>
    <path stroke="#ffffff" stroke-width="4.5" d="M534.724+354.548L506.915+396.266L512.888+405.389L525.214+424.218L534.724+354.548Z" fill="#be26ff" stroke-linecap="butt" opacity="1" stroke-linejoin="round"/>
    <path stroke="#ffffff" stroke-width="4.5" d="M425.535+385.267L450.792+421.59L525.214+424.218L425.535+385.267Z" fill="#be26ff" stroke-linecap="butt" opacity="1" stroke-linejoin="round"/>
    <path stroke="#000000" stroke-opacity="0.979387" stroke-width="4.5" d="M450.792+421.59L517.713+523.585L520.215+579.181L450.792+421.59Z" fill="#be26ff" stroke-linecap="butt" opacity="1" stroke-linejoin="round"/>
    <path stroke="#ffffff" stroke-width="4.5" d="M464.569+592.198L547.218+619.796L467.431+627.644L464.569+592.198Z" fill="#be26ff" stroke-linecap="butt" opacity="1" stroke-linejoin="round"/>
    <path stroke="#ffffff" stroke-width="4.5" d="M154.966+355.848L173.748+368.512L202.235+342.64L154.115+288.74L154.966+355.848Z" fill="#f14900" stroke-linecap="round" opacity="1" stroke-linejoin="round"/>
    <path stroke="#ffffff" stroke-width="4.5" d="M119.781+300.632L124.064+253.772L117.96+231.971L109.484+264.758L119.781+300.632Z" fill="#f14900" stroke-linecap="round" opacity="1" stroke-linejoin="round"/>
    <path stroke="#ffffff" stroke-width="4.5" d="M51.3429+189.075L68.0371+175.217L68.4079+205.748L51.3429+189.075Z" fill="#f14900" stroke-linecap="round" opacity="1" stroke-linejoin="round"/>
    <path stroke="#ffffff" stroke-width="4.5" d="M346.718+267.114L359.609+259.088L355.008+206.522L354.226+197.594L354.072+195.831L354.017+195.202L353.827+193.029L353.559+189.976L353.429+188.49L352.258+175.112L346.718+267.114Z" fill="#f14900" stroke-linecap="round" opacity="1" stroke-linejoin="round"/>
    <path stroke="#ffffff" stroke-width="4.5" d="M303.247+294.181L380.613+320.661L391.574+321.978L463.975+330.676L303.247+294.181Z" fill="#f14900" stroke-linecap="round" opacity="1" stroke-linejoin="round"/>
    <path stroke="#ffffff" stroke-width="4.5" d="M475.124+388.345L463.975+330.676L525.214+424.218L475.124+388.345Z" fill="#f14900" stroke-linecap="round" opacity="1" stroke-linejoin="round"/>
    <path stroke="#ffffff" stroke-width="4.5" d="M460.26+538.841L462.338+564.573L520.215+579.181L460.26+538.841Z" fill="#f14900" stroke-linecap="round" opacity="1" stroke-linejoin="round"/>
    <path stroke="#000000" stroke-opacity="0.979387" stroke-width="4.5" d="M517.713+523.585L519.024+552.717" fill="#f14900" stroke-linecap="round" opacity="1" stroke-linejoin="round"/>
    <path stroke="#ffffff" stroke-width="4.5" d="M460.26+538.841L456.366+490.623L520.215+579.181L460.26+538.841Z" fill="#43bbff" stroke-linecap="round" opacity="1" stroke-linejoin="round"/>
    <path stroke="#ffffff" stroke-width="4.5" d="M519.024+552.717L555.406+538.169L520.215+579.181L519.024+552.717Z" fill="#43bbff" stroke-linecap="round" opacity="1" stroke-linejoin="round"/>
    <path stroke="#ffffff" stroke-width="4.5" d="M479.737+422.612L505.672+423.528L517.713+523.585L479.737+422.612Z" fill="#43bbff" stroke-linecap="round" opacity="1" stroke-linejoin="round"/>
    <path stroke="#ffffff" stroke-width="4.5" d="M444.667+366.534L463.975+330.676L475.124+388.345L444.667+366.534Z" fill="#43bbff" stroke-linecap="round" opacity="1" stroke-linejoin="round"/>
    <path stroke="#ffffff" stroke-width="4.5" d="M374.196+250.005L419.416+259.388L463.975+330.676L374.196+250.005Z" fill="#43bbff" stroke-linecap="round" opacity="1" stroke-linejoin="round"/>
    <path stroke="#ffffff" stroke-width="4.5" d="M286.774+288.542L303.247+294.181L343.907+208.566L286.774+288.542Z" fill="#43bbff" stroke-linecap="round" opacity="1" stroke-linejoin="round"/>
    <path stroke="#ffffff" stroke-width="4.5" d="M154.966+355.848L154.115+288.74L139.707+320.15L154.966+355.848Z" fill="#43bbff" stroke-linecap="round" opacity="1" stroke-linejoin="round"/>
    <path stroke="#ffffff" stroke-width="4.5" d="M89.0014+253.948L117.96+232.231L91.612+218.34L89.0014+253.948Z" fill="#43bbff" stroke-linecap="round" opacity="1" stroke-linejoin="round"/>
    <path stroke="#ffffff" stroke-width="4.5" d="M68.6156+222.85L89.27+202.85L91.612+218.34L81.4814+227.773L68.6156+222.85Z" fill="#43bbff" stroke-linecap="round" opacity="1" stroke-linejoin="round"/>
    <path stroke="#ffffff" stroke-width="4.5" d="M97.0969+247.877L89.0014+253.948L109.484+265.019L117.96+232.231L89.0014+253.948" fill="#16ffa1" stroke-linecap="round" opacity="1" stroke-linejoin="round"/>
    <path stroke="#ffffff" stroke-width="4.5" d="M68.6156+222.85L89.27+202.85L68.2537+193.046L68.6156+222.85Z" fill="#16ffa1" stroke-linecap="round" opacity="1" stroke-linejoin="round"/>
    <path stroke="#ffffff" stroke-width="4.5" d="M119.781+300.893L156.402+270.956L139.707+320.15L119.781+300.893Z" fill="#16ffa1" stroke-linecap="round" opacity="1" stroke-linejoin="round"/>
    <path stroke="#ffffff" stroke-width="4.5" d="M251.818+247.284L267.126+265.352L350.676+201.394L251.818+247.284Z" fill="#16ffa1" stroke-linecap="round" opacity="1" stroke-linejoin="round"/>
    <path stroke="#ffffff" stroke-width="4.5" d="M359.609+259.088L374.196+250.005L357.895+194.356L352.258+175.112L359.609+259.088Z" fill="#16ffa1" stroke-linecap="round" opacity="1" stroke-linejoin="round"/>
    <path stroke="#000000" stroke-opacity="0.979387" stroke-width="4.5" d="M346.718+267.114" fill="#16ffa1" stroke-linecap="round" opacity="1" stroke-linejoin="round"/>
    <path stroke="#ffffff" stroke-width="4.5" d="M374.196+250.005L463.975+330.676L341.14+270.587L374.196+250.005Z" fill="#16ffa1" stroke-linecap="round" opacity="1" stroke-linejoin="round"/>
    <path stroke="#ffffff" stroke-width="4.5" d="M380.613+320.661L425.535+385.267L525.214+424.218L380.613+320.661Z" fill="#16ffa1" stroke-linecap="round" opacity="1" stroke-linejoin="round"/>
    <path stroke="#ffffff" stroke-width="4.5" d="M463.975+330.676L488.785+368.573L534.724+354.548L463.975+330.676Z" fill="#16ffa1" stroke-linecap="round" opacity="1" stroke-linejoin="round"/>
    <path stroke="#ffffff" stroke-width="4.5" d="M505.672+423.528L517.713+523.585L525.214+424.218L505.672+423.528Z" fill="#16ffa1" stroke-linecap="round" opacity="1" stroke-linejoin="round"/>
    <path stroke="#ffffff" stroke-width="4.5" d="M450.792+421.59L456.366+490.623L520.215+579.181L450.792+421.59Z" fill="#16ffa1" stroke-linecap="round" opacity="1" stroke-linejoin="round"/>
    <path stroke="#ffffff" stroke-width="4.5" d="M462.338+564.573L547.218+619.796L520.215+579.181L462.338+564.573Z" fill="#16ffa1" stroke-linecap="round" opacity="1" stroke-linejoin="round"/>
    <path stroke="#ffffff" stroke-width="4.5" d="M469.323+651.063L467.431+627.644L547.218+619.796L469.323+651.063Z" fill="#16ffa1" stroke-linecap="round" opacity="1" stroke-linejoin="round"/>
    <path stroke="#ffffff" stroke-width="4.5" d="M464.569+592.198L462.338+564.573L547.218+619.796L464.569+592.198Z" fill="#ff005f" stroke-linecap="round" opacity="1" stroke-linejoin="round"/>
    <path stroke="#ffffff" stroke-width="4.5" d="M450.792+421.59L479.737+422.612L517.713+523.585L463.444+440.874L450.792+421.59Z" fill="#ff005f" stroke-linecap="round" opacity="1" stroke-linejoin="round"/>
    <path stroke="#ffffff" stroke-width="4.5" d="M488.785+368.573L534.724+354.548L508.102+398.079L488.785+368.573Z" fill="#ff005f" stroke-linecap="round" opacity="1" stroke-linejoin="round"/>
    <path stroke="#ffffff" stroke-width="4.5" d="M444.374+366.323L463.975+330.676L380.613+320.661L444.374+366.323Z" fill="#ff005f" stroke-linecap="round" opacity="1" stroke-linejoin="round"/>
    <path stroke="#ffffff" stroke-width="4.5" d="M303.247+294.181L341.14+270.587L463.975+330.676L303.247+294.181Z" fill="#ff005f" stroke-linecap="round" opacity="1" stroke-linejoin="round"/>
    <path stroke="#ffffff" stroke-width="4.5" d="M267.126+265.352L286.774+288.542L339.329+216.869L350.676+201.394L267.126+265.352Z" fill="#ff005f" stroke-linecap="round" opacity="1" stroke-linejoin="round"/>
    <path stroke="#ffffff" stroke-width="4.5" d="M81.4814+227.773L91.612+218.34L89.7873+243.229L89.0014+253.948L81.4814+227.773Z" fill="#ff005f" stroke-linecap="round" opacity="1" stroke-linejoin="round"/>
    <path stroke="#ffffff" stroke-width="4.5" d="M517.713+523.585L519.024+552.717L544.052+542.709L555.406+538.169L517.713+523.585Z" fill="#f14900" stroke-linecap="round" opacity="1" stroke-linejoin="round"/>
    <path stroke="#ffffff" stroke-width="4.5" d="M233.27+564.164L218.885+579.583" fill="#f14900" stroke-linecap="butt" fill-opacity="0.00324675" opacity="1" stroke-linejoin="round"/>
    <path stroke="#ffffff" stroke-width="4.5" d="M229.919+557.097L233.27+564.164" fill="#f14900" stroke-linecap="butt" fill-opacity="0.00324675" opacity="1" stroke-linejoin="round"/>
    <path stroke="#ffffff" stroke-width="4.5" d="M254.283+328.454L376.504+434.225L254.283+328.454Z" fill="#2e1741" stroke-linecap="butt" fill-opacity="0.0078125" opacity="1" stroke-linejoin="round"/>
    <path stroke="#ffffff" stroke-width="4.5" d="M469.323+651.063L450.792+421.59L435.452+651.037L469.323+651.063Z" fill="#2e1741" stroke-linecap="butt" fill-opacity="0.0078125" opacity="1" stroke-linejoin="round"/>
    <path stroke="#ffffff" stroke-width="4.5" d="M435.452+651.037L388.296+364.46L381.207+321.754L450.792+421.59L435.452+651.037Z" fill="#2e1741" stroke-linecap="butt" fill-opacity="0.0078125" opacity="1" stroke-linejoin="round"/>
    <path stroke="#ffffff" stroke-width="4.5" d="M286.774+288.542L254.283+328.454L220.476+236.144L227.611+218.713L286.774+288.542Z" fill="#2e1741" stroke-linecap="butt" fill-opacity="0.0078125" opacity="1" stroke-linejoin="round"/>
    <path stroke="#ffffff" stroke-width="4.5" d="M150.574+222.339L214.772+240.273L227.611+218.713L150.574+222.339Z" fill="#2e1741" stroke-linecap="butt" fill-opacity="0.0078125" opacity="1" stroke-linejoin="round"/>
    <path stroke="#ffffff" stroke-width="4.5" d="M254.283+328.454L214.772+240.273L150.574+222.339L254.283+328.454Z" fill="#2e1741" stroke-linecap="butt" fill-opacity="0.0078125" opacity="1" stroke-linejoin="round"/>
    <path stroke="#ffffff" stroke-width="4.5" d="M186.669+259.271L203.836+300.869L254.283+328.454L186.669+259.271Z" fill="#2e1741" stroke-linecap="butt" fill-opacity="0.0078125" opacity="1" stroke-linejoin="round"/>
    <path stroke="#ffffff" stroke-width="4.5" d="M203.836+300.869L200.881+317.26L202.235+342.64L254.283+328.454L203.836+300.869Z" fill="#2e1741" stroke-linecap="butt" fill-opacity="0.0078125" opacity="1" stroke-linejoin="round"/>
    <path stroke="#ffffff" stroke-width="4.5" d="M173.748+368.512L177.035+380.516L254.283+328.454L202.235+342.64L173.748+368.512Z" fill="#2e1741" stroke-linecap="butt" fill-opacity="0.0078125" opacity="1" stroke-linejoin="round"/>
    <path stroke="#ffffff" stroke-width="4.5" d="M154.966+355.848L141.763+373.851L141.267+388.428L177.035+380.516L173.748+368.512L154.966+355.848Z" fill="#2e1741" stroke-linecap="butt" fill-opacity="0.0078125" opacity="1" stroke-linejoin="round"/>
    <path stroke="#ffffff" stroke-width="4.5" d="M177.035+380.516L197.967+401.077L254.283+328.454L177.035+380.516Z" fill="#2e1741" stroke-linecap="butt" fill-opacity="0.0078125" opacity="1" stroke-linejoin="round"/>
    <path stroke="#ffffff" stroke-width="4.5" d="M254.283+328.454L204.97+449.691L186.095+424.019L197.967+401.077L254.283+328.454Z" fill="#2e1741" stroke-linecap="butt" fill-opacity="0.0078125" opacity="1" stroke-linejoin="round"/>
    <path stroke="#ffffff" stroke-width="4.5" d="M341.04+504.275L255.057+507.325L204.97+449.691L254.283+328.454L341.04+504.275Z" fill="#2e1741" stroke-linecap="butt" fill-opacity="0.0078125" opacity="1" stroke-linejoin="round"/>
    <path stroke="#ffffff" stroke-width="4.5" d="M308.901+635.429L271.72+596.463L251.25+570.019L255.057+507.325L341.04+504.275L308.901+635.429Z" fill="#2e1741" stroke-linecap="butt" fill-opacity="0.0078125" opacity="1" stroke-linejoin="round"/>
    <path stroke="#ffffff" stroke-width="4.5" d="M196.059+650.857L251.25+570.019L313.895+650.946L196.059+650.857Z" fill="#2e1741" stroke-linecap="butt" fill-opacity="0.0078125" opacity="1" stroke-linejoin="round"/>
    <path stroke="#ffffff" stroke-width="4.5" d="M89.3431+281.49L154.966+355.848L139.707+320.15L119.781+300.893L114.854+283.467L89.3431+281.49Z" fill="#2e1741" stroke-linecap="butt" fill-opacity="0.0078125" opacity="1" stroke-linejoin="round"/>
    <path stroke="#ffffff" stroke-width="4.5" d="M141.267+388.428L145.903+436.66L99.9951+515.892L47.231+520.23L66.5565+475.144L141.267+388.428Z" fill="#2e1741" stroke-linecap="butt" fill-opacity="0.0078125" opacity="1" stroke-linejoin="round"/>
    <path stroke="#ffffff" stroke-width="4.5" d="M99.9951+515.892L203.05+450.689L204.97+449.479L186.095+424.019L177.244+440.912L161.984+445.548L145.903+436.447L99.9951+515.892Z" fill="#2e1741" stroke-linecap="butt" fill-opacity="0.0078125" opacity="1" stroke-linejoin="round"/>
    <path stroke="#ffffff" stroke-width="4.5" d="M47.231+520.23L97.0466+557.635L142.032+591.414L99.9951+515.892L47.231+520.23Z" fill="#2e1741" stroke-linecap="butt" fill-opacity="0.0078125" opacity="1" stroke-linejoin="round"/>
    <path stroke="#ffffff" stroke-width="4.5" d="M80.1575+590.402L112.341+569.119L47.231+520.23L80.1575+590.402Z" fill="#2e1741" stroke-linecap="butt" fill-opacity="0.0078125" opacity="1" stroke-linejoin="round"/>
    <path stroke="#ffffff" stroke-width="4.5" d="M142.032+591.414L127.098+580.402L115.492+571.687L112.341+569.119L80.1575+590.402L142.032+591.414Z" fill="#2e1741" stroke-linecap="butt" fill-opacity="0.0078125" opacity="1" stroke-linejoin="round"/>
    <path stroke="#ffffff" stroke-width="4.5" d="M99.9951+515.892L204.97+449.691L235.495+484.816L167.53+501.39L149.693+508.513L145.381+510.234L142.032+591.414L99.9951+515.892Z" fill="#2e1741" stroke-linecap="butt" fill-opacity="0.0078125" opacity="1" stroke-linejoin="round"/>
    <path stroke="#ffffff" stroke-width="4.5" d="M255.057+507.325L209.98+535.231L180.806+517.91L167.53+501.39L180.939+498.12L235.495+484.816L255.057+507.325Z" fill="#2e1741" stroke-linecap="butt" fill-opacity="0.0078125" opacity="1" stroke-linejoin="round"/>
    <path stroke="#ffffff" stroke-width="4.5" d="M175.257+550.122L142.983+568.36L142.032+591.414L183.716+557.231L175.257+550.122Z" fill="#2e1741" stroke-linecap="butt" fill-opacity="0.0078125" opacity="1" stroke-linejoin="round"/>
    <path stroke="#ffffff" stroke-width="4.5" d="M142.032+591.414L181.713+592.066L202.638+573.132L183.716+557.231L142.032+591.414Z" fill="#2e1741" stroke-linecap="butt" fill-opacity="0.0078125" opacity="1" stroke-linejoin="round"/>
    <path stroke="#ffffff" stroke-width="4.5" d="M215.119+583.62L223.302+543.139L233.27+564.164L227.61+570.231L215.119+583.62Z" fill="#16ffa1" stroke-linecap="butt" opacity="1" stroke-linejoin="round"/>
    <path stroke="#ffffff" stroke-width="4.5" d="M313.895+650.946L435.452+651.037" fill="#2e1741" stroke-linecap="butt" fill-opacity="0.0078125" opacity="1" stroke-linejoin="round"/>
  </g>
</svg>